HIERARCHY
ROOT Hips
{
  OFFSET 5.72205e-005 65.662 3.42586
  CHANNELS 6 Xposition Yposition Zposition Zrotation Xrotation Yrotation
  JOINT Chest
  {
    OFFSET 0 8.7983 -4.7612
    CHANNELS 6 Xposition Yposition Zposition Zrotation Xrotation Yrotation
    JOINT Chest2
    {
      OFFSET 0 8.0291 0.4195
      CHANNELS 6 Xposition Yposition Zposition Zrotation Xrotation Yrotation
      JOINT Chest3
      {
        OFFSET 0 9.9351 -2.2114
        CHANNELS 6 Xposition Yposition Zposition Zrotation Xrotation Yrotation
        JOINT Neck
        {
          OFFSET 0 22.3885 -0.4656
          CHANNELS 6 Xposition Yposition Zposition Zrotation Xrotation Yrotation
          JOINT Head
          {
            OFFSET -0.0001 12.643 3.4389
            CHANNELS 6 Xposition Yposition Zposition Zrotation Xrotation Yrotation
            End Site
            {
              OFFSET 0.0001 17.6655 0.5274
            }
          }
        }
        JOINT LeftCollar
        {
          OFFSET 2.2603 21.606 7.4023
          CHANNELS 6 Xposition Yposition Zposition Zrotation Xrotation Yrotation
          JOINT LeftShoulder
          {
            OFFSET 13.5163 -1.1332 -5.0146
            CHANNELS 6 Xposition Yposition Zposition Zrotation Xrotation Yrotation
            JOINT LeftElbow
            {
              OFFSET -0.0995 -28.05 -0.2431
              CHANNELS 6 Xposition Yposition Zposition Zrotation Xrotation Yrotation
              JOINT LeftWrist
              {
                OFFSET 0.0679 -23.3996 -0.1402
                CHANNELS 6 Xposition Yposition Zposition Zrotation Xrotation Yrotation
                JOINT LeftFinger1
                {
                  OFFSET 0.7932 -9.069 2.5189
                  CHANNELS 6 Xposition Yposition Zposition Zrotation Xrotation Yrotation
                  JOINT LeftFinger11
                  {
                    OFFSET -0.8272 -3.3923 0.5977
                    CHANNELS 6 Xposition Yposition Zposition Zrotation Xrotation Yrotation
                    JOINT LeftFinger12
                    {
                      OFFSET -0.5649 -2.3158 0.4082
                      CHANNELS 6 Xposition Yposition Zposition Zrotation Xrotation Yrotation
                      End Site
                      {
                        OFFSET -0.4919 -1.6479 0.2673
                      }
                    }
                  }
                }
                JOINT LeftFinger2
                {
                  OFFSET 0.9159 -9.2044 0.2193
                  CHANNELS 6 Xposition Yposition Zposition Zrotation Xrotation Yrotation
                  JOINT LeftFinger21
                  {
                    OFFSET 0.0117 -4.1944 -0.0248
                    CHANNELS 6 Xposition Yposition Zposition Zrotation Xrotation Yrotation
                    JOINT LeftFinger22
                    {
                      OFFSET 0.0071 -2.3249 -0.0142
                      CHANNELS 6 Xposition Yposition Zposition Zrotation Xrotation Yrotation
                      End Site
                      {
                        OFFSET -0.1475 -2.0882 0.0028
                      }
                    }
                  }
                }
                JOINT LeftFinger3
                {
                  OFFSET 0.6113 -8.7231 -2.0637
                  CHANNELS 6 Xposition Yposition Zposition Zrotation Xrotation Yrotation
                  JOINT LeftFinger31
                  {
                    OFFSET -0.1927 -3.8059 -0.2383
                    CHANNELS 6 Xposition Yposition Zposition Zrotation Xrotation Yrotation
                    JOINT LeftFinger32
                    {
                      OFFSET -0.1091 -2.1688 -0.1362
                      CHANNELS 6 Xposition Yposition Zposition Zrotation Xrotation Yrotation
                      End Site
                      {
                        OFFSET -0.2358 -1.9176 -0.0906
                      }
                    }
                  }
                }
                JOINT LeftFinger4
                {
                  OFFSET -0.6151 -8.0947 -3.5641
                  CHANNELS 6 Xposition Yposition Zposition Zrotation Xrotation Yrotation
                  JOINT LeftFinger41
                  {
                    OFFSET -0.4882 -2.341 -0.6462
                    CHANNELS 6 Xposition Yposition Zposition Zrotation Xrotation Yrotation
                    JOINT LeftFinger42
                    {
                      OFFSET -0.3575 -1.7167 -0.4742
                      CHANNELS 6 Xposition Yposition Zposition Zrotation Xrotation Yrotation
                      End Site
                      {
                        OFFSET -0.4187 -1.5237 -0.3496
                      }
                    }
                  }
                }
                JOINT LeftFinger0
                {
                  OFFSET -1.42 -1.8761 1.4223
                  CHANNELS 6 Xposition Yposition Zposition Zrotation Xrotation Yrotation
                  JOINT LeftFinger01
                  {
                    OFFSET -1.1471 -3.4929 2.6334
                    CHANNELS 6 Xposition Yposition Zposition Zrotation Xrotation Yrotation
                    JOINT LeftFinger02
                    {
                      OFFSET -0.823 -2.3 1.6571
                      CHANNELS 6 Xposition Yposition Zposition Zrotation Xrotation Yrotation
                      End Site
                      {
                        OFFSET -0.5822 -1.6914 1.1582
                      }
                    }
                  }
                }
              }
            }
          }
        }
        JOINT RightCollar
        {
          OFFSET -2.2603 21.606 7.4023
          CHANNELS 6 Xposition Yposition Zposition Zrotation Xrotation Yrotation
          JOINT RightShoulder
          {
            OFFSET -13.5187 -1.1334 -5.0155
            CHANNELS 6 Xposition Yposition Zposition Zrotation Xrotation Yrotation
            JOINT RightElbow
            {
              OFFSET 0.0994 -28.0499 -0.2431
              CHANNELS 6 Xposition Yposition Zposition Zrotation Xrotation Yrotation
              JOINT RightWrist
              {
                OFFSET -0.0679 -23.3996 -0.1402
                CHANNELS 6 Xposition Yposition Zposition Zrotation Xrotation Yrotation
                JOINT RightFinger1
                {
                  OFFSET -0.7932 -9.0691 2.5189
                  CHANNELS 6 Xposition Yposition Zposition Zrotation Xrotation Yrotation
                  JOINT RightFinger11
                  {
                    OFFSET 0.8272 -3.3923 0.5977
                    CHANNELS 6 Xposition Yposition Zposition Zrotation Xrotation Yrotation
                    JOINT RightFinger12
                    {
                      OFFSET 0.565 -2.3158 0.4082
                      CHANNELS 6 Xposition Yposition Zposition Zrotation Xrotation Yrotation
                      End Site
                      {
                        OFFSET 0.4919 -1.6479 0.2673
                      }
                    }
                  }
                }
                JOINT RightFinger2
                {
                  OFFSET -0.916 -9.2044 0.2193
                  CHANNELS 6 Xposition Yposition Zposition Zrotation Xrotation Yrotation
                  JOINT RightFinger21
                  {
                    OFFSET -0.0117 -4.1944 -0.0248
                    CHANNELS 6 Xposition Yposition Zposition Zrotation Xrotation Yrotation
                    JOINT RightFinger22
                    {
                      OFFSET -0.0071 -2.3249 -0.0142
                      CHANNELS 6 Xposition Yposition Zposition Zrotation Xrotation Yrotation
                      End Site
                      {
                        OFFSET 0.1475 -2.0882 0.0028
                      }
                    }
                  }
                }
                JOINT RightFinger3
                {
                  OFFSET -0.6113 -8.7231 -2.0637
                  CHANNELS 6 Xposition Yposition Zposition Zrotation Xrotation Yrotation
                  JOINT RightFinger31
                  {
                    OFFSET 0.1927 -3.8059 -0.2383
                    CHANNELS 6 Xposition Yposition Zposition Zrotation Xrotation Yrotation
                    JOINT RightFinger32
                    {
                      OFFSET 0.1091 -2.1688 -0.1362
                      CHANNELS 6 Xposition Yposition Zposition Zrotation Xrotation Yrotation
                      End Site
                      {
                        OFFSET 0.2358 -1.9176 -0.0906
                      }
                    }
                  }
                }
                JOINT RightFinger4
                {
                  OFFSET 0.6151 -8.0947 -3.564
                  CHANNELS 6 Xposition Yposition Zposition Zrotation Xrotation Yrotation
                  JOINT RightFinger41
                  {
                    OFFSET 0.4882 -2.341 -0.6462
                    CHANNELS 6 Xposition Yposition Zposition Zrotation Xrotation Yrotation
                    JOINT RightFinger42
                    {
                      OFFSET 0.3574 -1.7166 -0.4742
                      CHANNELS 6 Xposition Yposition Zposition Zrotation Xrotation Yrotation
                      End Site
                      {
                        OFFSET 0.4187 -1.5237 -0.3496
                      }
                    }
                  }
                }
                JOINT RightFinger0
                {
                  OFFSET 1.4199 -1.8761 1.4221
                  CHANNELS 6 Xposition Yposition Zposition Zrotation Xrotation Yrotation
                  JOINT RightFinger01
                  {
                    OFFSET 1.1472 -3.4929 2.6336
                    CHANNELS 6 Xposition Yposition Zposition Zrotation Xrotation Yrotation
                    JOINT RightFinger02
                    {
                      OFFSET 0.8229 -2.3 1.6571
                      CHANNELS 6 Xposition Yposition Zposition Zrotation Xrotation Yrotation
                      End Site
                      {
                        OFFSET 0.5822 -1.6914 1.1582
                      }
                    }
                  }
                }
              }
            }
          }
        }
      }
    }
  }
  JOINT RightHip
  {
    OFFSET -9.412 3.9771 -0.7758
    CHANNELS 6 Xposition Yposition Zposition Zrotation Xrotation Yrotation
    JOINT RightKnee
    {
      OFFSET -0.7531 -40.938 0
      CHANNELS 6 Xposition Yposition Zposition Zrotation Xrotation Yrotation
      JOINT RightAnkle
      {
        OFFSET 0 -40.1986 0
        CHANNELS 6 Xposition Yposition Zposition Zrotation Xrotation Yrotation
        JOINT RightToe
        {
          OFFSET 0 -4.4182 9.239
          CHANNELS 6 Xposition Yposition Zposition Zrotation Xrotation Yrotation
          End Site
          {
            OFFSET 0 0 6.1981
          }
        }
      }
    }
  }
  JOINT LeftHip
  {
    OFFSET 9.4119 3.9773 -0.7758
    CHANNELS 6 Xposition Yposition Zposition Zrotation Xrotation Yrotation
    JOINT LeftKnee
    {
      OFFSET 0.7532 -40.9383 0
      CHANNELS 6 Xposition Yposition Zposition Zrotation Xrotation Yrotation
      JOINT LeftAnkle
      {
        OFFSET 0 -40.1986 0
        CHANNELS 6 Xposition Yposition Zposition Zrotation Xrotation Yrotation
        JOINT LeftToe
        {
          OFFSET 0 -4.4182 9.239
          CHANNELS 6 Xposition Yposition Zposition Zrotation Xrotation Yrotation
          End Site
          {
            OFFSET 0 0 6.1981
          }
        }
      }
    }
  }
}
MOTION
Frames:	4
Frame Time:	0.0333333
5.72205e-005 65.662 3.42586 0 0 -0 0 8.7983 -4.7612 0 0 -0 0 8.0291 0.4195 0 0 -0 0 9.9351 -2.2114 0 0 -0 0 22.3885 -0.4656 0 0 -0 -0.0001 12.643 3.4389 0 0 -0 2.2603 21.606 7.4023 0 0 -12.5014 13.5163 -1.1332 -5.0146 88.1196 14.2451 10.6914 -0.0995 -28.05 -0.2431 -0.00160068 -0.00239207 0.000740045 0.0679 -23.3996 -0.1402 -8.4365e-005 7.00714e-005 -9.52055e-007 0.7932 -9.069 2.5189 9.93923e-017 -1.98785e-016 -1.59028e-015 -0.8272 -3.3923 0.5977 9.93923e-017 -5.96354e-016 -1.59028e-015 -0.5649 -2.3158 0.4082 -9.93923e-017 -5.96354e-016 -1.59028e-015 0.9159 -9.2044 0.2193 9.93923e-017 -1.98785e-016 -1.59028e-015 0.0117 -4.1944 -0.0248 -0.0128176 0.00232552 8.52707e-005 0.0071 -2.3249 -0.0142 9.93923e-017 5.96354e-016 -0 0.6113 -8.7231 -2.0637 9.93923e-017 -1.98785e-016 -1.59028e-015 -0.1927 -3.8059 -0.2383 -0.0160551 0.00299681 0.000857156 -0.1091 -2.1688 -0.1362 -2.48481e-016 0 3.18055e-015 -0.6151 -8.0947 -3.5641 9.93923e-017 -1.98785e-016 -1.59028e-015 -0.4882 -2.341 -0.6462 -0.0125865 0.0031206 0.00282719 -0.3575 -1.7167 -0.4742 0 1.98785e-016 -0 -1.42 -1.8761 1.4223 9.93923e-017 -1.98785e-016 -1.59028e-015 -1.1471 -3.4929 2.6334 9.93923e-017 -5.96354e-016 -1.59028e-015 -0.823 -2.3 1.6571 -9.93923e-017 -5.96354e-016 -1.59028e-015 -2.2603 21.606 7.4023 -0.865644 0.16582 7.03859 -13.5187 -1.1334 -5.0155 -88.0329 10.2057 -10.5567 0.0994 -28.0499 -0.2431 0.0015593 -0.00248883 -0.000788628 -0.0679 -23.3996 -0.1402 7.87605e-005 4.10553e-005 1.24965e-005 -0.7932 -9.0691 2.5189 -3.97569e-016 -7.95139e-016 3.18055e-015 0.8272 -3.3923 0.5977 -1.98785e-016 -3.97569e-016 3.18055e-015 0.565 -2.3158 0.4082 -1.98785e-016 0 3.18055e-015 -0.916 -9.2044 0.2193 -3.97569e-016 -7.95139e-016 3.18055e-015 -0.0117 -4.1944 -0.0248 0.0129473 0.00231697 -8.70038e-005 -0.0071 -2.3249 -0.0142 9.93923e-017 -7.95139e-016 1.59028e-015 -0.6113 -8.7231 -2.0637 -3.97569e-016 -7.95139e-016 3.18055e-015 0.1927 -3.8059 -0.2383 0.0163314 0.00303369 -0.000872333 0.1091 -2.1688 -0.1362 3.97569e-016 7.95139e-016 -3.18055e-015 0.6151 -8.0947 -3.564 -3.97569e-016 -7.95139e-016 3.18055e-015 0.4882 -2.341 -0.6462 0.0145763 0.00367772 -0.00326275 0.3574 -1.7166 -0.4742 9.93923e-017 -3.97569e-016 -0 1.4199 -1.8761 1.4221 -3.97569e-016 -7.95139e-016 3.18055e-015 1.1472 -3.4929 2.6336 -1.98785e-016 -3.97569e-016 3.18055e-015 0.8229 -2.3 1.6571 -1.98785e-016 0 3.18055e-015 -9.412 3.9771 -0.7758 3.42482 1.32465 -0.0626183 -0.7531 -40.938 0 0.000117508 0.717283 0.000978199 0 -40.1986 0 -3.4257 -2.04197 -0.0604716 8.88178e-016 -4.4182 9.239 6.47761e-025 0 -0 9.4119 3.9773 -0.7758 -3.42483 1.34017 0.0627307 0.7532 -40.9383 -2.22045e-016 -0.000193936 0.682302 -0.0013703 -8.88179e-016 -40.1986 0 3.42574 -2.02253 0.0595886 -8.88178e-016 -4.4182 9.239 -8.45714e-024 0 -7.40531e-025 
-20.0083 21.2751 4.19053 36.2124 29.1341 123.62 3.55271e-015 8.7983 -4.7612 -0.472443 1.51481 0.0147127 -1.77636e-015 8.0291 0.4195 -0.945748 3.02944 0.0419766 1.77636e-015 9.9351 -2.2114 -0.945751 3.02943 0.0419745 -3.55271e-015 22.3885 -0.4656 -3.55717e-005 11.927 -8.00227e-006 -0.0001 12.643 3.4389 1.8481e-006 8.2127 1.54622e-006 2.2603 21.606 7.4023 -9.3548 17.4339 -26.9413 13.5163 -1.1332 -5.0146 45.2436 42.1822 29.1418 -0.0995 -28.05 -0.2431 1.08727 -59.5793 7.93942 0.0679 -23.3996 -0.1402 -12.5653 -1.58154 -0.374084 0.7932 -9.069 2.5189 -2.39887e-006 -3.56933e-006 7.44523e-006 -0.8272 -3.3923 0.5977 2.39887e-006 3.56933e-006 -7.44523e-006 -0.5649 -2.3158 0.4082 -2.39887e-006 -3.56933e-006 7.44523e-006 0.9159 -9.2044 0.2193 -2.39887e-006 -3.56933e-006 7.44523e-006 0.0117 -4.1944 -0.0248 -0.0128432 0.00232707 7.61528e-005 0.0071 -2.3249 -0.0142 4.0001e-032 3.97569e-016 -5.76476e-015 0.6113 -8.7231 -2.0637 -2.39887e-006 -3.56933e-006 7.44523e-006 -0.1927 -3.8059 -0.2383 -0.0160318 0.00300462 0.000849001 -0.1091 -2.1688 -0.1362 1.53971e-006 -1.16246e-005 8.39843e-008 -0.6151 -8.0947 -3.5641 -2.39887e-006 -3.56933e-006 7.44523e-006 -0.4882 -2.341 -0.6462 -0.0125744 0.0031141 0.00281289 -0.3575 -1.7167 -0.4742 3.20122e-006 1.5641e-006 4.92926e-006 -1.42 -1.8761 1.4223 -2.39887e-006 -3.56933e-006 7.44523e-006 -1.1471 -3.4929 2.6334 2.39887e-006 3.56933e-006 -7.44523e-006 -0.823 -2.3 1.6571 -2.39887e-006 -3.56933e-006 7.44523e-006 -2.2603 21.606 7.4023 8.43716 17.376 21.7485 -13.5187 -1.1334 -5.0155 -47.9153 39.5825 -24.085 0.0994 -28.0499 -0.2431 -1.89072 -59.4368 -9.45842 -0.0679 -23.3996 -0.1402 12.5571 -1.57953 0.624528 -0.7932 -9.0691 2.5189 -3.56089e-006 -5.2274e-007 -7.2269e-006 0.8272 -3.3923 0.5977 5.70088e-006 6.33671e-006 8.78217e-006 0.565 -2.3158 0.4082 -6.36111e-015 1.59028e-015 9.54166e-015 -0.916 -9.2044 0.2193 -3.56089e-006 -5.2274e-007 -7.2269e-006 -0.0117 -4.1944 -0.0248 0.0129814 0.00233273 -7.71803e-005 -0.0071 -2.3249 -0.0142 -1.03192e-005 -9.51026e-006 -3.14337e-006 -0.6113 -8.7231 -2.0637 -3.56089e-006 -5.2274e-007 -7.2269e-006 0.1927 -3.8059 -0.2383 0.0162942 0.0030346 -0.00086376 0.1091 -2.1688 -0.1362 4.77083e-015 7.95139e-016 -9.54166e-015 0.6151 -8.0947 -3.564 -3.56089e-006 -5.2274e-007 -7.2269e-006 0.4882 -2.341 -0.6462 0.0145609 0.0036795 -0.00325098 0.3574 -1.7166 -0.4742 -3.23399e-006 -1.88321e-006 -3.4478e-007 1.4199 -1.8761 1.4221 -3.56089e-006 -5.2274e-007 -7.2269e-006 1.1472 -3.4929 2.6336 5.70088e-006 6.33671e-006 8.78217e-006 0.8229 -2.3 1.6571 -6.36111e-015 1.59028e-015 9.54166e-015 -9.412 3.9771 -0.7758 -30.8166 -17.6253 -59.2653 -0.7531 -40.938 0 -56.7151 63.6379 99.5694 0 -40.1986 -1.77636e-015 0.148531 10.1168 -28.7093 -1.77636e-015 -4.4182 9.239 -1.76607e-006 -1.74041e-006 1.06855e-005 9.4119 3.9773 -0.7758 29.9051 -18.7322 60.4178 0.7532 -40.9383 -7.10543e-015 60.5134 64.3236 -105.111 0 -40.1986 -3.55271e-015 0.0745897 9.53584 31.4825 0 -4.4182 9.239 3.25291e-006 -3.72521e-006 8.0665e-007 
-40.6807 1.84097 5.76307 -26.865 62.3242 -150.23 -7.10543e-015 8.7983 -4.7612 -0.695587 2.25402 -0.0108224 -7.10543e-015 8.0291 0.4195 -1.39235 4.50795 0.00578685 -7.10543e-015 9.9351 -2.2114 -1.39235 4.50798 0.00578753 7.10543e-015 22.3885 -0.4656 1.13816e-005 16.9116 -3.17281e-006 -0.0001 12.643 3.4389 2.35159e-007 11.5873 3.31669e-006 2.2603 21.606 7.4023 -10.3392 24.2848 -34.7374 13.5163 -1.1332 -5.0146 21.5642 52.7331 40.0181 -0.0995 -28.05 -0.2431 -54.7539 -79.491 -46.128 0.0679 -23.3996 -0.1402 -18.0674 -2.42799 -0.263029 0.7932 -9.069 2.5189 -1.39149e-015 0 5.96354e-015 -0.8272 -3.3923 0.5977 -1.19271e-015 -1.59028e-015 6.01324e-015 -0.5649 -2.3158 0.4082 -1.98785e-016 -7.95139e-015 -3.97569e-016 0.9159 -9.2044 0.2193 -1.39149e-015 0 5.96354e-015 0.0117 -4.1944 -0.0248 -0.012898 0.00233382 8.281e-005 0.0071 -2.3249 -0.0142 1.59028e-015 3.18055e-015 -8.15017e-015 0.6113 -8.7231 -2.0637 -1.39149e-015 0 5.96354e-015 -0.1927 -3.8059 -0.2383 -0.0161633 0.00301097 0.000857564 -0.1091 -2.1688 -0.1362 -2.78299e-015 -1.59028e-015 -3.77691e-015 -0.6151 -8.0947 -3.5641 -1.39149e-015 0 5.96354e-015 -0.4882 -2.341 -0.6462 -0.0124708 0.00308678 0.00279031 -0.3575 -1.7167 -0.4742 1.19271e-015 7.95139e-015 -4.87022e-015 -1.42 -1.8761 1.4223 -1.39149e-015 0 5.96354e-015 -1.1471 -3.4929 2.6334 -1.19271e-015 -1.59028e-015 6.01324e-015 -0.823 -2.3 1.6571 -1.98785e-016 -7.95139e-015 -3.97569e-016 -2.2603 21.606 7.4023 9.36552 24.105 29.6665 -13.5187 -1.1334 -5.0155 -27.1005 51.8198 -31.9183 0.0994 -28.0499 -0.2431 51.9914 -80.1232 42.699 -0.0679 -23.3996 -0.1402 18.0598 -2.4023 0.617078 -0.7932 -9.0691 2.5189 1.86212e-031 -3.57812e-015 2.98177e-015 0.8272 -3.3923 0.5977 3.18055e-015 -7.95139e-016 2.18663e-015 0.565 -2.3158 0.4082 2.06732e-006 -2.64225e-006 3.20462e-006 -0.916 -9.2044 0.2193 1.86212e-031 -3.57812e-015 2.98177e-015 -0.0117 -4.1944 -0.0248 0.0129425 0.00232907 -9.43692e-005 -0.0071 -2.3249 -0.0142 -6.36111e-015 -3.18055e-015 1.98785e-016 -0.6113 -8.7231 -2.0637 1.86212e-031 -3.57812e-015 2.98177e-015 0.1927 -3.8059 -0.2383 0.0163217 0.00304168 -0.000876142 0.1091 -2.1688 -0.1362 2.96723e-006 3.58301e-007 1.71628e-006 0.6151 -8.0947 -3.564 1.86212e-031 -3.57812e-015 2.98177e-015 0.4882 -2.341 -0.6462 0.0145779 0.00368112 -0.0032614 0.3574 -1.7166 -0.4742 8.58657e-007 -1.67568e-006 6.19966e-006 1.4199 -1.8761 1.4221 1.86212e-031 -3.57812e-015 2.98177e-015 1.1472 -3.4929 2.6336 3.18055e-015 -7.95139e-016 2.18663e-015 0.8229 -2.3 1.6571 2.06732e-006 -2.64225e-006 3.20462e-006 -9.412 3.9771 -0.7758 -52.8018 -11.137 -82.0928 -0.7531 -40.938 0 -87.8795 34.5684 134.343 4.44089e-016 -40.1986 -3.55271e-015 8.85172 12.2165 -45.6755 3.55271e-015 -4.4182 9.239 1.04554e-006 5.78355e-008 -4.68784e-006 9.4119 3.9773 -0.7758 51.7939 -11.1303 82.9799 0.7532 -40.9383 -3.55271e-015 88.7736 33.1584 -137.87 1.42109e-014 -40.1986 3.55271e-015 -8.57641 10.8851 49.6724 -3.55271e-015 -4.4182 9.239 -1.83046e-006 2.09434e-006 9.87722e-007 
-35.8386 6.18917 4.44392 5.64008e-015 60.9968 180 0 8.7983 -4.7612 -0.641945 2.21465 -0.00612896 -7.10543e-015 8.0291 0.4195 -1.28509 4.42912 0.0126086 0 9.9351 -2.2114 -1.28509 4.42912 0.0126087 0 22.3885 -0.4656 -3.91432e-005 14.954 -1.02665e-006 -0.0001 12.643 3.4389 3.85751e-007 10.1237 -8.92327e-009 2.2603 21.606 7.4023 -9.97995 22.6392 -33.424 13.5163 -1.1332 -5.0146 26.8087 50.5191 37.602 -0.0995 -28.05 -0.2431 -28.1994 -77.2548 -19.9207 0.0679 -23.3996 -0.1402 -16.5119 -2.53556 -0.00520706 0.7932 -9.06901 2.5189 7.95139e-016 0 6.65929e-015 -0.8272 -3.3923 0.5977 7.95139e-016 1.59028e-015 3.67752e-015 -0.5649 -2.3158 0.4082 7.95139e-016 0 7.15625e-015 0.9159 -9.20441 0.2193 7.95139e-016 0 6.65929e-015 0.0117 -4.1944 -0.0248 -0.0128005 0.00232598 8.08449e-005 0.0071 -2.3249 -0.0142 2.75869e-032 3.18055e-015 -4.96962e-016 0.6113 -8.7231 -2.0637 7.95139e-016 0 6.65929e-015 -0.1927 -3.8059 -0.2383 -0.0160874 0.00299896 0.000855916 -0.1091 -2.1688 -0.1362 3.82296e-006 4.91134e-007 -5.68231e-006 -0.6151 -8.0947 -3.5641 7.95139e-016 0 6.65929e-015 -0.4882 -2.341 -0.6462 -0.0124834 0.00310363 0.00280728 -0.3575 -1.7167 -0.4742 -2.38542e-015 0 -9.34288e-015 -1.42 -1.8761 1.4223 7.95139e-016 0 6.65929e-015 -1.1471 -3.4929 2.6334 7.95139e-016 1.59028e-015 3.67752e-015 -0.823 -2.3 1.6571 7.95139e-016 0 7.15625e-015 -2.2603 21.606 7.4023 8.94569 22.4747 28.3498 -13.5187 -1.1334 -5.0155 -31.5721 49.2114 -30.2467 0.0994 -28.0499 -0.2431 25.1573 -77.5347 16.185 -0.0679 -23.3996 -0.1402 16.4951 -2.5138 0.319481 -0.7932 -9.0691 2.5189 -1.98785e-016 1.59028e-015 -4.27387e-015 0.8272 -3.3923 0.5977 7.95139e-016 1.59028e-015 -8.44835e-016 0.565 -2.3158 0.4082 3.97569e-016 3.18055e-015 -4.12478e-015 -0.916 -9.2044 0.2193 -1.98785e-016 1.59028e-015 -4.27387e-015 -0.0117 -4.1944 -0.0248 0.0129494 0.00231188 -8.59549e-005 -0.0071 -2.3249 -0.0142 3.48502e-006 8.42104e-007 -7.00497e-006 -0.6113 -8.7231 -2.0637 -1.98785e-016 1.59028e-015 -4.27387e-015 0.1927 -3.8059 -0.2383 0.0163325 0.00303474 -0.00087846 0.1091 -2.1688 -0.1362 7.95139e-016 1.59028e-015 -2.68359e-015 0.6151 -8.0947 -3.564 -1.98785e-016 1.59028e-015 -4.27387e-015 0.4882 -2.341 -0.6462 0.0145988 0.00368159 -0.00326436 0.3574 -1.7166 -0.4742 2.5842e-015 4.77083e-015 9.93923e-016 1.4199 -1.8761 1.4221 -1.98785e-016 1.59028e-015 -4.27387e-015 1.1472 -3.4929 2.6336 7.95139e-016 1.59028e-015 -8.44835e-016 0.8229 -2.3 1.6571 3.97569e-016 3.18055e-015 -4.12478e-015 -9.412 3.9771 -0.7758 -47.5324 -13.906 -75.9511 -0.7531 -40.938 -8.88178e-016 -84.8998 42.229 129.836 8.88178e-016 -40.1986 0 7.22936 11.6406 -40.9328 1.77636e-015 -4.4182 9.239 1.33318e-006 5.92042e-008 -7.07749e-006 9.4119 3.9773 -0.7758 46.6232 -14.1949 76.9627 0.7532 -40.9383 0 86.3688 41.1998 -133.528 0 -40.1986 0 -6.93486 10.5201 44.4253 0 -4.4182 9.239 2.04747e-006 3.10388e-007 5.7085e-007 
